PathFileType	4	(X/Y/Z)	TVC_36_BWA_02_walk_RCNL2025.trc
DataRate	CameraRate	NumFrames	NumMarkers	Units	OrigDataRate	OrigDataStartFrame	OrigNumFrames
100	100	5	27	mm	100	61	487
Frame#	Time	R_Shoulder			L_Shoulder			C7			J_Notch			R_Elbow			L_Elbow			R_Wrist			L_Wrist			R_Asis			L_Asis			R_Psis			L_Psis			Sacral			Thoracic			Sternum			R_Thigh_Lateral			R_Knee_Lateral			R_Shank_Lateral			R_Ankle_Lateral			R_Heel			R_Toe			L_Thigh_Lateral			L_Knee_Lateral			L_Shank_Lateral			L_Ankle_Lateral			L_Heel			L_Toe		
		X1	Y1	Z1	X2	Y2	Z2	X3	Y3	Z3	X4	Y4	Z4	X5	Y5	Z5	X6	Y6	Z6	X7	Y7	Z7	X8	Y8	Z8	X9	Y9	Z9	X10	Y10	Z10	X11	Y11	Z11	X12	Y12	Z12	X13	Y13	Z13	X14	Y14	Z14	X15	Y15	Z15	X16	Y16	Z16	X17	Y17	Z17	X18	Y18	Z18	X19	Y19	Z19	X20	Y20	Z20	X21	Y21	Z21	X22	Y22	Z22	X23	Y23	Z23	X24	Y24	Z24	X25	Y25	Z25	X26	Y26	Z26	X27	Y27	Z27
61	0.60000000	-1.843374	1379.145996	561.250549	-68.978317	1372.127563	214.483414	-76.772774	1428.745483	398.097473	74.684906	1302.808716	376.403503	-38.627296	1116.850098	701.341614	-84.595482	1103.525757	63.872749	125.683788	964.490845	691.854187	86.563751	985.789093	127.985905	6.844402	888.540649	509.747833	-44.525261	901.946228	268.865112	-173.544693	933.532654	472.369171	-195.205627	934.729431	391.311035	-184.375160	934.131042	431.840103	-142.509720	1156.606079	421.401672	102.061256	1148.591187	356.114166	18.714996	643.515564	608.894775	72.746040	472.727356	539.309082	27.404085	278.116028	605.611023	33.449356	75.165359	552.389648	-9.882132	56.723804	500.522675	161.187698	44.713478	531.405823	-108.193298	672.563782	166.889969	-99.740028	472.135620	225.705902	-142.714752	276.631714	172.777313	-72.357788	64.349045	214.498474	-120.167221	47.555672	254.094482	51.745884	53.099297	264.695953
62	0.61000000	2.805820	1378.748779	564.240356	-66.146126	1372.552490	217.590164	-72.873581	1428.866089	401.199951	78.424789	1302.997925	378.748962	-32.615479	1114.792480	702.413757	-80.024277	1104.805176	65.226723	128.300747	958.284424	691.479706	92.607700	988.598206	127.961407	12.015184	888.166077	511.156494	-42.736599	903.082214	268.871918	-168.646927	932.912415	475.394104	-191.077255	934.446838	394.492432	-179.862091	933.679626	434.943268	-137.974075	1156.402710	424.457245	105.737831	1148.910278	357.997070	22.723810	641.628601	609.011963	74.261086	470.948364	537.829590	32.704861	275.667603	604.913391	41.215733	73.024239	551.745728	-2.371779	54.001423	500.420349	169.328995	43.547157	529.137024	-105.410355	673.233521	168.759460	-97.129303	472.610107	226.921768	-141.482452	277.322266	173.800751	-72.421135	64.587723	214.771118	-120.173912	47.824234	254.423218	51.772537	53.078712	264.693329
63	0.62000000	7.349874	1378.534424	567.228394	-63.597546	1373.021973	220.805222	-69.070297	1429.111328	404.376068	82.110435	1303.362671	381.119843	-26.631847	1113.003296	703.533264	-75.634621	1106.029785	66.883461	131.025261	952.794189	691.158508	98.577152	991.628326	128.257862	17.235170	887.964600	512.667236	-41.090210	904.327942	268.775360	-163.699799	932.455261	478.573669	-186.933456	934.247681	397.850311	-175.316628	933.351471	438.211990	-133.279465	1156.226440	427.511261	109.407570	1149.388550	359.956970	27.075716	640.219604	609.336853	76.151299	469.494141	536.741394	36.913822	273.909576	604.321350	46.397167	71.768425	551.045288	2.626834	52.407837	500.165314	174.636230	42.662449	527.157410	-102.601295	673.894226	170.820908	-94.235687	473.151947	228.278198	-140.118973	278.089630	175.001740	-72.499985	64.903938	215.162613	-120.143768	48.114883	254.862335	51.825500	53.044361	264.704346
64	0.63000000	11.828723	1378.521851	570.183289	-61.254765	1373.555176	224.093002	-65.346252	1429.489258	407.604309	85.759033	1303.895508	383.495728	-20.728964	1111.514282	704.677551	-71.417480	1107.192993	68.849739	133.822674	948.031799	690.946991	104.452473	994.828888	128.883118	22.455580	887.964294	514.261169	-39.452965	905.612366	268.760162	-158.738449	932.238464	481.827454	-182.784836	934.180664	401.300049	-170.761642	933.209564	441.563751	-128.466415	1156.100464	430.535248	113.068352	1150.015625	361.974091	31.681425	639.340698	609.902710	78.353622	468.399261	536.131042	40.235310	272.737793	603.971863	49.455700	71.169075	550.431641	5.555478	51.687992	499.898956	177.637192	42.024277	525.597168	-99.730576	674.548035	173.041245	-91.032722	473.752075	229.744583	-138.598694	278.925629	176.361343	-72.585052	65.285606	215.680405	-120.065872	48.427574	255.430588	51.914093	52.989902	264.724274
65	0.64000000	16.273705	1378.715210	573.076172	-59.038567	1374.163818	227.412567	-61.689217	1429.995239	410.856873	89.381844	1304.580322	385.854187	-14.950674	1110.344727	705.835266	-67.370872	1108.278931	71.126915	136.678448	943.990570	690.891907	110.210072	998.143005	129.837940	27.633680	888.178528	515.923767	-37.696743	906.872620	268.991882	-153.793594	932.313171	485.083130	-178.636002	934.280518	404.762054	-166.214798	933.296844	444.922592	-123.596382	1156.045166	433.512085	116.715927	1150.775269	364.020935	36.407452	638.975098	610.749023	80.760429	467.649414	536.053650	42.896622	272.020325	603.963867	50.906479	71.006737	550.009277	6.907049	51.595169	499.731781	178.900482	41.589802	524.517700	-96.756638	675.199219	175.375275	-87.495621	474.397369	231.286880	-136.891464	279.819244	177.852951	-72.662544	65.719589	216.332047	-119.932419	48.767307	256.150574	52.048782	52.908028	264.749664
